<svg preserveAspectRatio="none" overflow="visible" style="display: block;" width="36" height="36" viewBox="0 0 36 36" fill="none" xmlns="http://www.w3.org/2000/svg">
<g id="Tournament">
<path id="Vector" d="M2.25 5.94589C2.25 5.36924 2.25 4.7916 2.25 4.21495C2.51487 3.57357 3.01528 3.3637 3.70676 3.37546C5.26462 3.40292 6.82349 3.38331 8.38236 3.38429C9.3003 3.38429 9.72186 3.78834 9.7259 4.67294C9.72792 5.07895 9.7259 5.48496 9.7259 5.9047C15.2588 5.9047 20.7563 5.9047 26.2821 5.9047C26.2821 5.44377 26.276 5.00736 26.2831 4.57193C26.2962 3.81384 26.7329 3.38723 27.5114 3.38527C29.1825 3.38135 30.8545 3.38037 32.5256 3.38527C33.3081 3.38723 33.7762 3.8413 33.7489 4.60429C33.7074 5.7272 33.665 6.85108 33.5709 7.97007C33.3576 10.4846 32.8431 12.9452 32.0232 15.3411C30.8475 18.7804 29.1461 21.9255 26.4711 24.5077C24.7555 26.1641 22.7731 27.3929 20.3853 27.9333C19.9698 28.0275 19.5482 28.0951 19.1367 28.1736C19.1367 28.9405 19.1367 29.6907 19.1367 30.4645C19.2803 30.4645 19.4016 30.4645 19.5239 30.4645C21.3598 30.4645 23.1947 30.4645 25.0305 30.4645C25.1539 30.4645 25.2772 30.4645 25.3995 30.4724C25.8534 30.5028 26.1729 30.7322 26.3447 31.1294C26.5237 31.5423 26.4438 31.9326 26.1375 32.267C25.8888 32.5377 25.5613 32.625 25.1953 32.625C20.3964 32.623 15.5974 32.624 10.7985 32.6221C10.657 32.6221 10.5104 32.6064 10.3739 32.5701C9.76634 32.4053 9.43273 31.7855 9.63087 31.2049C9.79465 30.7264 10.193 30.4674 10.7995 30.4665C12.7072 30.4635 14.6138 30.4655 16.5214 30.4655C16.6397 30.4655 16.757 30.4655 16.8793 30.4655C16.8793 29.6701 16.8793 28.9268 16.8793 28.1706C16.762 28.1461 16.6549 28.1167 16.5457 28.102C14.5592 27.8392 12.7992 27.0517 11.2039 25.9013C8.86964 24.2184 7.1571 22.0265 5.8166 19.5532C3.7189 15.6823 2.68774 11.5261 2.3612 7.18747C2.32986 6.77361 2.2874 6.35975 2.25 5.94589ZM4.51754 5.5438C4.51754 5.68306 4.51451 5.78114 4.51754 5.87921C4.5974 8.09168 4.90776 10.2737 5.45569 12.4215C6.2513 15.5441 7.46948 18.4872 9.44486 21.0988C9.85025 21.6342 10.3052 22.1334 10.7379 22.6493C10.7601 22.6336 10.7833 22.6169 10.8056 22.6012C10.7702 22.5218 10.7368 22.4414 10.6974 22.3639C8.93838 18.8804 8.08515 15.1606 7.73334 11.328C7.56552 9.49899 7.56754 7.65526 7.49071 5.81742C7.48768 5.7321 7.47555 5.64776 7.46544 5.5438C6.57986 5.5438 5.72056 5.5438 4.86025 5.5438C4.76016 5.5438 4.65907 5.5438 4.51754 5.5438ZM25.2428 22.6257C29.6556 17.7497 31.1619 11.8723 31.5288 5.5644C30.4926 5.5644 29.5161 5.5644 28.5142 5.5644C28.5547 11.4673 27.9046 17.2269 25.2428 22.6257Z" fill="#6D6D6D"/>
</g>
</svg>
